# xmcd
#
# Track frame offsets:
#	150
#	18590
#	34049
#	52811
#	62628
#	79433
#	94361
#	110068
#	122206
#	140026
#	153673
#	168004
#	183064
#	201854
#	214640
#
# Disc length: 3363 seconds
#
# Revision: 1
# Processed by: cddbd v1.5.2PL0 Copyright (c) Steve Scherf et al.
# Submitted via: audiograbber 1.83.01
#
DISCID=d20d210f
DTITLE=Kenneth Saulnier - Ses bons souvenirs (1977-2007)
DYEAR=1900
DGENRE=
TTITLE0=Vivre à la baie (Baie Ste-Marie)
TTITLE1=M'en allant par Saulnicville Station
TTITLE2=Etes-Vous Game
TTITLE3=Southville
TTITLE4=Chassé
TTITLE5=Hé toi
TTITLE6=Peaceful Feeling
TTITLE7=Lonesome Fiddle Blues
TTITLE8=Les bons souvnirs
TTITLE9=Blues du mois d'janvier
TTITLE10=Reel celtique
TTITLE11=Gars d'la Baie
TTITLE12=Heritage
TTITLE13=Barre d'acier
TTITLE14=Leo
EXTD=
EXTT0=
EXTT1=
EXTT2=
EXTT3=
EXTT4=
EXTT5=
EXTT6=
EXTT7=
EXTT8=
EXTT9=
EXTT10=
EXTT11=
EXTT12=
EXTT13=
EXTT14=
PLAYORDER=
